<?xml version="1.0" standalone="no"?><!DOCTYPE svg PUBLIC "-//W3C//DTD SVG 1.1//EN" "http://www.w3.org/Graphics/SVG/1.1/DTD/svg11.dtd" ><svg xmlns="http://www.w3.org/2000/svg"><metadata></metadata><defs><font id="fonteditor" horiz-adv-x="900"><font-face font-family="YouSheShaYuFeiTeJianKangTi" font-weight="400" font-stretch="normal" units-per-em="1000" panose-1="0 2 6 0 4 1 1 1 1 1" ascent="850" descent="-297" x-height="1" bbox="17 -150 892 850" underline-thickness="50" underline-position="-100" unicode-range="U+0041-90fd" /><missing-glyph horiz-adv-x="500" d="M410 -150 L93 -150 L93 850 L410 850 L410 -150 ZM333 -81 L333 -48 L231 -48 L301 -1 L333 -1 L333 32 L167 32 L167 -1 L237 -1 L167 -48 L167 -81 L333 -81 ZM333 55 L333 168 L167 168 L167 55 L333 55 ZM333 228 L333 341 L233 341 L233 285 L267 285 L267 308 L300 308 L300 261 L200 261 L200 341 L167 341 L167 228 L333 228 ZM333 363 L333 463 L300 463 L300 397 L167 397 L167 363 L333 363 ZM267 420 L267 490 L333 490 L333 523 L167 523 L167 490 L233 490 L233 453 L167 453 L167 420 L267 420 ZM333 550 L333 584 L267 584 L267 654 L167 654 L167 550 L333 550 ZM333 680 L333 713 L267 713 L267 750 L333 750 L333 783 L168 783 L168 750 L233 750 L233 713 L167 713 L167 680 L333 680 ZM200 135 L300 135 L300 88 L200 88 L200 135 ZM200 620 L233 620 L233 584 L200 584 L200 620 Z" /><glyph glyph-name="A" unicode="a" d="M325 752 Q331 763 343 770.5 Q355 778 369 778 Q383 778 395 770.5 Q407 763 413 752 L416 746 L716 -20 Q719 -28 719 -38 Q719 -59 704.5 -73.5 Q690 -88 669 -88 Q653 -88 640.5 -79 Q628 -70 622 -56 L545 140 L194 140 L117 -56 Q111 -70 98.5 -79 Q86 -88 70 -88 Q49 -88 34.5 -73.5 Q20 -59 20 -38 Q20 -28 23 -20 L322 746 L325 752 ZM506 240 L369 590 L233 240 L506 240 Z" /><glyph glyph-name="I" unicode="i" d="M140 -38 Q140 -59 125.5 -73.5 Q111 -88 90 -88 Q69 -88 54.5 -73.5 Q40 -59 40 -38 L40 728 Q40 749 54.5 763.5 Q69 778 90 778 Q111 778 125.5 763.5 Q140 749 140 728 L140 -38 Z" /><glyph glyph-name="CID4.001" unicode="&#x4e07;" d="M804 763 Q823 763 836 750 Q849 737 849 718 Q849 699 836 686 Q823 673 804 673 L375 673 Q374 623 371.5 577.5 Q369 532 364 488 L754 488 Q773 488 786 475 Q799 462 799 443 L799 90 Q799 47 784 10.5 Q769 -26 742 -53 Q715 -80 678.5 -95 Q642 -110 599 -110 Q580 -110 567 -97 Q554 -84 554 -65 Q554 -46 567 -33 Q580 -20 599 -20 Q653 -20 681 8 Q709 36 709 90 L709 398 L352 398 Q325 223 267.5 98 Q210 -27 123 -107 Q109 -119 93 -119 Q74 -119 61 -106 Q48 -93 48 -74 Q48 -54 63 -41 Q165 53 222.5 227.5 Q280 402 285 673 L106 673 Q87 673 74 686 Q61 699 61 718 Q61 737 74 750 Q87 763 106 763 L804 763 Z" /><glyph glyph-name="CID68" unicode="&#x4e66;" d="M682 654 Q701 654 714 641 Q727 628 727 609 L727 374 L788 374 Q807 374 820 361 Q833 348 833 329 L833 185 Q833 92 785 40.5 Q737 -11 643 -11 Q624 -11 611 2 Q598 15 598 34 Q598 53 611 66 Q624 79 643 79 Q672 79 691.5 84 Q711 89 722.5 101 Q734 113 738.5 133.5 Q743 154 743 185 L743 284 L408 284 L408 -86 Q408 -105 395 -118 Q382 -131 363 -131 Q344 -131 331 -118 Q318 -105 318 -86 L318 284 L86 284 Q67 284 54 297 Q41 310 41 329 Q41 348 54 361 Q67 374 86 374 L318 374 L318 564 L131 564 Q112 564 99 577 Q86 590 86 609 Q86 628 99 641 Q112 654 131 654 L318 654 L318 775 Q318 794 331 807 Q344 820 363 820 Q382 820 395 807 Q408 794 408 775 L408 654 L682 654 ZM408 374 L637 374 L637 564 L408 564 L408 374 ZM833 704 Q851 691 851 668 Q851 649 838 636 Q825 623 806 623 Q791 623 779 632 L639 737 Q621 750 621 773 Q621 792 634 805 Q647 818 666 818 Q681 818 693 809 L833 704 Z" /><glyph glyph-name="CID160" unicode="&#x4f18;" d="M439 770 Q438 787 451 800 Q464 813 483 813 Q500 813 513.5 801 Q527 789 528 772 Q528 724 527.5 681.5 Q527 639 526 600 L804 600 Q823 600 836 587 Q849 574 849 555 Q849 536 836 523 Q823 510 804 510 L661 510 L661 47 Q661 12 667 0 Q673 -12 686 -12 L734 -12 Q747 -12 753 0 Q759 12 759 47 L759 133 Q759 152 772 165 Q785 178 804 178 Q823 178 836 165 Q849 152 849 133 L849 47 Q849 12 839.5 -15.5 Q830 -43 814.5 -62.5 Q799 -82 778 -92 Q757 -102 734 -102 L686 -102 Q663 -102 642 -92 Q621 -82 605.5 -62.5 Q590 -43 580.5 -15.5 Q571 12 571 47 L571 510 L522 510 Q516 394 503.5 308.5 Q491 223 471 154.5 Q451 86 422.5 28.5 Q394 -29 357 -87 Q352 -95 344.5 -100 Q337 -105 327 -106 Q318 -108 308.5 -105 Q299 -102 290.5 -96.5 Q282 -91 276 -83.5 Q270 -76 269 -67 Q266 -53 275 -39 Q310 16 337 68 Q364 120 383.5 182 Q403 244 415 323 Q427 402 433 510 L328 510 Q309 510 296 523 Q283 536 283 555 Q283 574 296 587 Q309 600 328 600 L437 600 Q438 638 438.5 680.5 Q439 723 439 770 ZM96 330 Q82 315 61 315 Q42 316 29.5 329.5 Q17 343 18 362 Q20 380 31 391 Q93 459 137 551.5 Q181 644 203 774 Q206 791 219.5 802 Q233 813 250 812 Q270 811 283 795.5 Q296 780 292 760 Q283 706 270 658 Q257 610 240 566 Q242 558 242 555 L242 -68 Q242 -87 229 -100 Q216 -113 197 -113 Q178 -113 165 -100 Q152 -87 152 -68 L152 398 Q138 380 124.5 363 Q111 346 96 330 ZM759 707 Q769 694 769 679 Q769 660 756 647 Q743 634 724 634 Q703 634 689 651 L623 733 Q613 746 613 761 Q613 780 626 793 Q639 806 658 806 Q679 806 693 789 L759 707 Z" /><glyph glyph-name="CID359" unicode="&#x516c;" d="M824 -47 Q831 -59 831 -72 Q831 -91 818 -104 Q805 -117 786 -117 Q761 -117 748 -97 L712 -42 L172 -104 L160 -104 Q143 -102 131.5 -89 Q120 -76 120 -59 Q120 -48 126 -37 L387 436 Q398 459 426 459 Q445 459 458 446 Q471 433 471 414 Q471 402 465 392 L246 -4 L656 42 L561 187 Q554 199 554 212 Q554 231 567 244 Q580 257 599 257 Q624 257 637 237 L824 -47 ZM127 291 Q114 278 95 278 Q76 278 63 291 Q50 304 50 323 Q50 342 63 355 Q97 388 131 434.5 Q165 481 197 536.5 Q229 592 257.5 655 Q286 718 310 785 Q315 798 326 806.5 Q337 815 352 815 Q371 815 384 802 Q397 789 397 770 Q397 762 394 755 Q370 685 339 617.5 Q308 550 273.5 489.5 Q239 429 201.5 378.5 Q164 328 127 291 ZM841 355 Q854 342 854 323 Q854 304 841 291 Q828 278 809 278 Q790 278 777 291 Q740 328 702.5 378.5 Q665 429 630.5 489.5 Q596 550 565 617.5 Q534 685 510 755 Q507 762 507 770 Q507 789 520 802 Q533 815 552 815 Q567 815 578 806.5 Q589 798 594 785 Q618 718 646.5 655 Q675 592 707 536.5 Q739 481 773 434.5 Q807 388 841 355 Z" /><glyph glyph-name="CID368" unicode="&#x5177;" d="M810 238 Q829 238 842 225 Q855 212 855 193 Q855 174 842 161 Q829 148 810 148 L90 148 Q71 148 58 161 Q45 174 45 193 Q45 212 58 225 Q71 238 90 238 L153 238 L153 737 Q153 750 159 761 Q172 784 199 784 L701 784 Q715 784 726 776.5 Q737 769 742 758 Q747 746 747 737 L747 238 L810 238 ZM243 238 L657 238 L657 694 L243 694 L243 238 ZM244 99 Q257 118 280 118 Q299 118 312 105 Q325 92 325 73 Q325 57 316 47 Q274 -12 219 -49 Q164 -86 101 -115 Q93 -119 82 -119 Q63 -119 50 -106 Q37 -93 37 -74 Q37 -60 44.5 -49 Q52 -38 63 -33 Q122 -6 166 23.5 Q210 53 244 99 ZM598 34 Q575 47 575 73 Q575 92 588 105 Q601 118 620 118 Q633 118 642 112 Q696 81 749 44.5 Q802 8 851 -43 Q863 -57 863 -74 Q863 -93 850 -106 Q837 -119 818 -119 Q799 -119 785 -105 Q742 -60 696.5 -27.5 Q651 5 598 34 ZM571 636 Q586 636 597 625 Q608 614 608 599 Q608 584 597 573 Q586 562 571 562 L338 562 Q323 562 312 573 Q301 584 301 599 Q301 614 312 625 Q323 636 338 636 L571 636 ZM571 504 Q586 504 597 493 Q608 482 608 467 Q608 452 597 441 Q586 430 571 430 L338 430 Q323 430 312 441 Q301 452 301 467 Q301 482 312 493 Q323 504 338 504 L571 504 ZM571 372 Q586 372 597 361 Q608 350 608 335 Q608 320 597 309 Q586 298 571 298 L338 298 Q323 298 312 309 Q301 320 301 335 Q301 350 312 361 Q323 372 338 372 L571 372 Z" /><glyph glyph-name="CID653" unicode="&#x53f8;" d="M525 423 Q552 423 564 400 Q571 390 571 376 L571 197 Q571 165 560 137.5 Q549 110 529 90 Q509 70 481.5 59 Q454 48 422 48 L262 48 Q230 48 202.5 59 Q175 70 155 90 Q135 110 124 137.5 Q113 165 113 197 L113 376 Q113 388 118 397 Q123 408 134 415.5 Q145 423 159 423 L525 423 ZM771 783 Q790 783 804 769 Q818 755 818 736 L818 91 Q818 -10 770.5 -61 Q723 -112 620 -112 Q601 -112 588 -99 Q575 -86 575 -67 Q575 -48 588 -35 Q601 -22 620 -22 Q654 -22 675 -17.5 Q696 -13 708 -0.5 Q720 12 724 34 Q728 56 728 91 L728 693 L142 693 Q123 693 110 706 Q97 719 97 738 Q97 757 110 770 Q123 783 142 783 L771 783 ZM422 138 Q454 138 467.5 151.5 Q481 165 481 197 L481 333 L203 333 L203 197 Q203 165 216.5 151.5 Q230 138 262 138 L422 138 ZM602 603 Q621 603 634 590 Q647 577 647 558 Q647 539 634 526 Q621 513 602 513 L128 513 Q109 513 96 526 Q83 539 83 558 Q83 577 96 590 Q109 603 128 603 L602 603 Z" /><glyph glyph-name="CID834" unicode="&#x5546;" d="M809 718 Q828 718 841 705 Q854 692 854 673 Q854 654 841 641 Q828 628 809 628 L668 628 Q676 622 681.5 612 Q687 602 687 591 Q687 575 677 563 L632 508 L768 508 Q778 508 786.5 504 Q795 500 801 494 Q815 480 815 461 L815 32 Q815 0 804 -27.5 Q793 -55 773 -75 Q753 -95 725.5 -106 Q698 -117 666 -117 Q647 -117 634 -104 Q621 -91 621 -72 Q621 -53 634 -40 Q647 -27 666 -27 Q698 -27 711.5 -13.5 Q725 0 725 32 L725 418 L175 418 L175 -75 Q175 -94 162 -107 Q149 -120 130 -120 Q111 -120 98 -107 Q85 -94 85 -75 L85 463 Q85 482 98 495 Q111 508 130 508 L267 508 L223 563 Q213 575 213 591 Q213 615 232 628 L91 628 Q72 628 59 641 Q46 654 46 673 Q46 692 59 705 Q72 718 91 718 L408 718 L390 754 Q385 764 385 775 Q385 794 398 807 Q411 820 430 820 Q443 820 453.5 813.5 Q464 807 470 796 L510 718 L809 718 ZM577 255 Q597 255 609 241 Q623 229 623 209 L623 104 Q623 57 593 27 Q563 -3 516 -3 L384 -3 Q337 -3 307 27 Q277 57 277 104 L277 210 Q277 229 290 242 Q303 255 322 255 L577 255 ZM293 619 L383 508 L517 508 L607 619 Q609 621 611.5 623.5 Q614 626 616 628 L283 628 L293 619 ZM689 311 Q705 298 705 277 Q705 258 692 245 Q679 232 660 232 Q644 232 631 243 L529 330 Q513 343 513 364 Q513 383 526 396 Q539 409 558 409 Q574 409 587 398 L689 311 ZM269 243 Q256 232 240 232 Q221 232 208 245 Q195 258 195 277 Q195 298 211 311 L313 398 Q326 409 342 409 Q361 409 374 396 Q387 383 387 364 Q387 343 371 330 L269 243 ZM516 87 Q529 87 531 89 Q533 91 533 104 L533 165 L367 165 L367 104 Q367 91 369 89 Q371 87 384 87 L516 87 Z" /><glyph glyph-name="CID985" unicode="&#x56fe;" d="M785 778 Q804 778 818 764 Q832 750 832 731 L832 51 Q832 19 821 -8.5 Q810 -36 790 -56 Q770 -76 742.5 -87 Q715 -98 683 -98 L217 -98 Q185 -98 157.5 -87 Q130 -76 110 -56 Q90 -36 79 -8.5 Q68 19 68 51 L68 734 Q69 752 81.5 765 Q94 778 113 778 L785 778 ZM683 -8 Q715 -8 728.5 5.5 Q742 19 742 51 L742 688 L158 688 L158 51 Q158 19 171.5 5.5 Q185 -8 217 -8 L683 -8 ZM222 258 Q202 253 185.5 265 Q169 277 169 299 Q169 313 177.5 324.5 Q186 336 200 340 Q248 353 291 370.5 Q334 388 375 411 Q355 426 335.5 441.5 Q316 457 298 474 L258 436 Q245 425 229 425 Q212 425 199.5 437.5 Q187 450 187 467 Q187 476 191 484 Q195 492 201 498 Q242 534 271.5 571 Q301 608 329 655 Q342 675 365 675 Q382 675 394.5 662.5 Q407 650 407 633 Q407 625 404 619 L629 619 Q646 619 658.5 606.5 Q671 594 671 577 Q671 561 662 551 Q630 511 596.5 477 Q563 443 526 413 Q566 391 608.5 372.5 Q651 354 698 339 Q711 334 719 323.5 Q727 313 727 299 Q727 282 714.5 269.5 Q702 257 685 257 Q680 257 672 259 Q553 298 452 360 Q428 345 403.5 331 Q379 317 353 306 Q355 306 357.5 305.5 Q360 305 362 305 Q426 292 480 277.5 Q534 263 591 243 Q603 238 611 227.5 Q619 217 619 203 Q619 186 606.5 173.5 Q594 161 577 161 Q569 161 562 164 Q508 184 457.5 197.5 Q407 211 346 223 Q332 226 322 237.5 Q312 249 312 264 Q312 281 324 293 Q272 271 222 258 ZM617 94 Q628 89 635.5 79 Q643 69 643 56 Q643 38 630.5 26 Q618 14 601 14 Q592 14 585 17 Q546 33 509.5 46 Q473 59 436 70 Q399 81 360 90.5 Q321 100 276 109 Q262 112 252.5 123.5 Q243 135 243 151 Q243 171 258.5 183.5 Q274 196 294 192 Q340 182 380.5 172 Q421 162 460 150 Q499 138 537.5 124.5 Q576 111 617 94 ZM355 535 Q378 514 401.5 495.5 Q425 477 450 460 Q473 477 494 495.5 Q515 514 536 535 L355 535 Z" /><glyph glyph-name="CID996" unicode="&#x5728;" d="M367 785 Q371 799 382.5 808.5 Q394 818 410 818 Q432 818 445.5 800.5 Q459 783 453 761 Q448 745 442.5 728.5 Q437 712 431 695 L812 695 Q831 695 844 682 Q857 669 857 650 Q857 631 844 618 Q831 605 812 605 L393 605 Q369 553 340.5 500 Q312 447 280 396 Q281 393 281 388 L281 -74 Q281 -93 268 -106 Q255 -119 236 -119 Q217 -119 204 -106 Q191 -93 191 -74 L191 267 Q173 244 156 225 Q139 206 123 191 Q109 179 92 179 Q73 179 60 192 Q47 205 47 224 Q47 243 61 257 Q88 283 118.5 321.5 Q149 360 180 406 Q211 452 240.5 503 Q270 554 295 605 L109 605 Q90 605 77 618 Q64 631 64 650 Q64 669 77 682 Q90 695 109 695 L335 695 Q345 719 353 741.5 Q361 764 367 785 ZM824 23 Q843 23 856 10 Q869 -3 869 -22 Q869 -41 856 -54 Q843 -67 824 -67 L352 -67 Q333 -67 320 -54 Q307 -41 307 -22 Q307 -3 320 10 Q333 23 352 23 L543 23 L543 286 L395 286 Q376 286 363 299 Q350 312 350 331 Q350 350 363 363 Q376 376 395 376 L543 376 L543 518 Q543 537 556 550 Q569 563 588 563 Q607 563 620 550 Q633 537 633 518 L633 376 L768 376 Q787 376 800 363 Q813 350 813 331 Q813 312 800 299 Q787 286 768 286 L633 286 L633 23 L824 23 Z" /><glyph glyph-name="CID1400" unicode="&#x5bfc;" d="M718 484 Q718 503 731 516 Q744 529 763 529 Q782 529 795 516 Q808 503 808 484 Q808 369 693 369 L249 369 Q177 369 143.5 402.5 Q110 436 110 508 L110 735 Q110 754 123 767 Q136 780 155 780 L707 780 Q734 780 746 757 Q753 747 753 733 L753 671 Q753 639 742 611.5 Q731 584 711 564 Q691 544 663.5 533 Q636 522 604 522 L200 522 L200 508 Q200 490 201 480 Q202 470 206.5 465.5 Q211 461 221 460 Q231 459 249 459 L693 459 Q712 459 715 462 Q718 465 718 484 ZM809 286 Q828 286 841 273 Q854 260 854 241 Q854 222 841 209 Q828 196 809 196 L656 196 L656 80 Q656 37 641 0.5 Q626 -36 599 -63 Q572 -90 535.5 -105 Q499 -120 456 -120 Q437 -120 424 -107 Q411 -94 411 -75 Q411 -56 424 -43 Q437 -30 456 -30 Q510 -30 538 -2 Q566 26 566 80 L566 196 L92 196 Q73 196 60 209 Q47 222 47 241 Q47 260 60 273 Q73 286 92 286 L566 286 L566 306 Q566 325 579 338 Q592 351 611 351 Q630 351 643 338 Q656 325 656 306 L656 286 L809 286 ZM604 612 Q636 612 649.5 625.5 Q663 639 663 671 L663 690 L200 690 L200 612 L604 612 ZM387 68 Q401 56 401 36 Q401 17 388 4 Q375 -9 356 -9 Q338 -9 325 4 L239 87 Q225 99 225 119 Q225 138 238 151 Q251 164 270 164 Q288 164 301 151 L387 68 Z" /><glyph glyph-name="CID1540" unicode="&#x5de5;" d="M810 18 Q829 18 842 5 Q855 -8 855 -27 Q855 -46 842 -59 Q829 -72 810 -72 L90 -72 Q71 -72 58 -59 Q45 -46 45 -27 Q45 -8 58 5 Q71 18 90 18 L405 18 L405 663 L130 663 Q111 663 98 676 Q85 689 85 708 Q85 727 98 740 Q111 753 130 753 L770 753 Q789 753 802 740 Q815 727 815 708 Q815 689 802 676 Q789 663 770 663 L495 663 L495 18 L810 18 Z" /><glyph glyph-name="CID1560" unicode="&#x5e08;" d="M402 705 Q385 705 372.5 717.5 Q360 730 360 747 Q360 764 372.5 776 Q385 788 402 788 L806 788 Q823 788 835 776 Q847 764 847 747 Q847 730 835 717.5 Q823 705 806 705 L646 705 L646 577 L795 577 Q812 577 823.5 565.5 Q835 554 837 537 L837 179 Q837 121 805.5 87 Q774 53 714 53 Q696 53 683.5 65.5 Q671 78 671 96 Q671 113 683.5 125.5 Q696 138 714 138 Q727 138 734.5 139 Q742 140 745.5 144 Q749 148 750 156.5 Q751 165 751 179 L751 493 L646 493 L646 -71 Q646 -89 633.5 -101 Q621 -113 603 -113 Q586 -113 573.5 -101 Q561 -89 561 -71 L561 493 L467 493 L467 98 Q467 81 454 68.5 Q441 56 424 56 Q406 56 393.5 68.5 Q381 81 381 98 L381 534 Q381 551 392 563 Q401 572 413 575 Q417 577 420 577 L561 577 L561 705 L402 705 ZM181 -91 Q168 -111 144 -111 Q126 -111 113 -98.5 Q100 -86 100 -68 Q100 -61 102 -55 Q104 -49 106 -44 Q138 10 160.5 54.5 Q183 99 198.5 143 Q214 187 222.5 234 Q231 281 235.5 339 Q240 397 241 471 Q242 545 242 643 L242 779 Q242 797 255 809.5 Q268 822 286 822 Q304 822 316.5 809.5 Q329 797 329 779 L329 643 Q329 495 322 386 Q315 277 298 192.5 Q281 108 252.5 40.5 Q224 -27 181 -91 ZM80 686 Q80 704 93 716.5 Q106 729 123 729 Q141 729 153.5 716.5 Q166 704 166 686 L166 175 Q166 158 153.5 145 Q141 132 123 132 Q106 132 93 145 Q80 158 80 175 L80 686 Z" /><glyph glyph-name="CID1691" unicode="&#x5f69;" d="M341 -55 Q341 -74 328 -87 Q315 -100 296 -100 Q277 -100 264 -87 Q251 -74 251 -55 L251 154 Q226 114 195.5 73 Q165 32 127 -10 Q119 -20 106 -23 Q89 -28 73.5 -18 Q58 -8 53 9 Q47 30 62 48 Q116 107 158 171.5 Q200 236 228 292 L112 292 Q94 292 81.5 304.5 Q69 317 69 334 Q69 352 81.5 364.5 Q94 377 112 377 L251 377 L251 419 Q251 438 264 451 Q277 464 296 464 Q315 464 328 451 Q341 438 341 419 L341 377 L478 377 Q496 377 508.5 364.5 Q521 352 521 334 Q521 317 508.5 304.5 Q496 292 478 292 L353 292 L502 123 Q510 116 516 107.5 Q522 99 522 87 Q522 69 508.5 54 Q495 39 477 38 Q464 38 453 46 L341 181 L341 -55 ZM768 227 Q783 247 808 245 Q827 243 839.5 229 Q852 215 851 196 Q850 183 841 171 Q807 121 773 83 Q739 45 704 14.5 Q669 -16 632 -41 Q595 -66 556 -88 Q546 -95 533 -97 Q514 -99 499 -87 Q484 -75 482 -56 Q481 -43 485.5 -31.5 Q490 -20 500 -14 Q544 12 579 35.5 Q614 59 644.5 86 Q675 113 704.5 146.5 Q734 180 768 227 ZM102 667 Q85 665 71.5 677 Q58 689 57 708 Q56 725 66 738 Q76 751 91 753 Q124 757 174 765 Q224 773 277 782 Q330 791 379 800.5 Q428 810 458 817 Q475 821 489 808.5 Q503 796 505 776 Q506 759 497 746.5 Q488 734 473 731 Q437 723 387.5 713.5 Q338 704 286.5 695 Q235 686 186 678.5 Q137 671 102 667 ZM752 501 Q759 509 770 514 Q781 519 792 517 Q811 515 823 500 Q835 485 833 466 Q832 454 823 442 Q794 407 768.5 379.5 Q743 352 716 326 Q689 300 658 274 Q627 248 586 217 Q576 209 563 209 Q544 207 529.5 219 Q515 231 513 250 Q511 276 531 292 Q568 320 598 344 Q628 368 653.5 392.5 Q679 417 702.5 443 Q726 469 752 501 ZM731 785 Q744 805 769 805 Q788 805 801.5 792 Q815 779 815 760 Q815 747 808 735 Q766 669 710 609 Q654 549 584 492 Q575 483 561 481 Q542 479 527 490 Q512 501 509 520 Q506 547 526 561 Q590 615 641.5 670 Q693 725 731 785 ZM420 654 Q425 674 446 681 Q463 686 478 677 Q493 668 498 650 Q503 636 499 624 L457 479 Q451 457 430 451 Q414 446 398.5 455 Q383 464 378 482 Q375 497 378 509 L420 654 ZM93 571 Q88 581 88 592 Q88 612 100 625 Q112 638 129 637 Q155 635 166 610 L211 494 Q215 486 215 473 Q213 453 200 441.5 Q187 430 170 432 Q158 434 149 442 Q140 450 135 462 L93 571 ZM230 605 Q227 615 228 625 Q230 645 244 656.5 Q258 668 275 666 Q300 661 308 636 L343 535 Q345 524 342 514 Q337 496 324.5 486.5 Q312 477 295 482 Q272 488 261 515 L230 605 Z" /><glyph glyph-name="CID3523" unicode="&#x7528;" d="M113 -96 Q100 -116 76 -116 Q57 -116 44 -103 Q31 -90 31 -71 Q31 -57 39 -46 Q55 -22 67 5 Q79 32 87 66 Q95 100 98.5 144.5 Q102 189 102 248 L102 734 Q103 752 115.5 765 Q128 778 147 778 L750 778 Q777 778 789 755 Q796 745 796 731 L796 37 Q796 -33 758 -74.5 Q720 -116 648 -116 Q629 -116 616 -103 Q603 -90 603 -71 Q603 -52 616 -39 Q629 -26 648 -26 Q666 -26 677.5 -23.5 Q689 -21 695.5 -14.5 Q702 -8 704 4.5 Q706 17 706 37 L706 688 L494 688 L494 531 L621 531 Q640 531 653 518 Q666 505 666 486 Q666 467 653 454 Q640 441 621 441 L494 441 L494 284 L621 284 Q640 284 653 271 Q666 258 666 239 Q666 220 653 207 Q640 194 621 194 L494 194 L494 -71 Q494 -90 481 -103 Q468 -116 449 -116 Q430 -116 417 -103 Q404 -90 404 -71 L404 194 L275 194 Q256 194 243 207 Q230 220 230 239 Q230 258 243 271 Q256 284 275 284 L404 284 L404 441 L275 441 Q256 441 243 454 Q230 467 230 486 Q230 505 243 518 Q256 531 275 531 L404 531 L404 688 L192 688 L192 248 Q192 183 187 132.5 Q182 82 172.5 41 Q163 0 148 -33 Q133 -66 113 -96 Z" /><glyph glyph-name="CID3533" unicode="&#x7535;" d="M752 82 Q752 101 765 114 Q778 127 797 127 Q816 127 829 114 Q842 101 842 82 L842 42 Q842 -23 800 -60 Q758 -97 693 -97 L505 -97 Q440 -97 398 -60 Q356 -23 356 42 L356 123 L213 123 Q181 123 153.5 134 Q126 145 106 165 Q86 185 75 212.5 Q64 240 64 272 L64 625 Q64 638 70 649 Q83 672 110 672 L356 672 L356 782 Q356 801 369 814 Q382 827 401 827 Q420 827 433 814 Q446 801 446 782 L446 672 L708 672 Q722 672 733 664.5 Q744 657 749 646 Q754 634 754 625 L754 272 Q754 240 743 212.5 Q732 185 712 165 Q692 145 664.5 134 Q637 123 605 123 L446 123 L446 52 Q446 20 459.5 6.5 Q473 -7 505 -7 L693 -7 Q725 -7 738.5 6.5 Q752 20 752 52 L752 82 ZM579 450 Q598 450 611 437 Q624 424 624 405 Q624 386 611 373 Q598 360 579 360 L446 360 L446 213 L605 213 Q637 213 650.5 226.5 Q664 240 664 272 L664 582 L446 582 L446 450 L579 450 ZM154 272 Q154 240 167.5 226.5 Q181 213 213 213 L356 213 L356 360 L239 360 Q220 360 207 373 Q194 386 194 405 Q194 424 207 437 Q220 450 239 450 L356 450 L356 582 L154 582 L154 272 Z" /><glyph glyph-name="CID3666" unicode="&#x767e;" d="M802 787 Q821 787 834 774 Q847 761 847 742 Q847 723 834 710 Q821 697 802 697 L502 697 L453 563 L724 563 Q743 563 756 550 Q769 537 770 519 L770 51 Q770 19 759 -8.5 Q748 -36 728.5 -56 Q709 -76 681.5 -87 Q654 -98 622 -98 L276 -98 Q244 -98 216.5 -87 Q189 -76 169.5 -56 Q150 -36 139 -8.5 Q128 19 128 51 L128 518 Q128 537 141 550 Q154 563 174 563 L358 563 L407 697 L96 697 Q77 697 64 710 Q51 723 51 742 Q51 761 64 774 Q77 787 96 787 L802 787 ZM622 -8 Q654 -8 667 5.5 Q680 19 680 51 L680 473 L218 473 L218 51 Q218 19 231 5.5 Q244 -8 276 -8 L622 -8 ZM592 304 Q611 304 624 291 Q637 278 637 259 Q637 240 624 227 Q611 214 592 214 L306 214 Q287 214 274 227 Q261 240 261 259 Q261 278 274 291 Q287 304 306 304 L592 304 Z" /><glyph glyph-name="CID3668" unicode="&#x7684;" d="M203 791 Q208 802 218.5 809 Q229 816 243 816 Q262 816 275 803 Q288 790 288 771 Q288 761 283 751 L237 658 L350 658 Q369 658 382 645 Q395 632 395 613 Q395 594 382 581 Q369 568 350 568 L311 568 L311 611 Q311 630 324 643 Q337 656 356 656 Q375 656 388 643 Q401 630 401 611 L401 37 Q401 -23 363.5 -58 Q326 -93 270 -98 Q234 -101 198 -98 Q142 -93 104.5 -58 Q67 -23 67 37 L67 614 Q68 632 80.5 645 Q93 658 112 658 L137 658 L203 791 ZM511 467 Q505 456 494.5 449.5 Q484 443 471 443 Q452 443 439 456 Q426 469 426 488 Q426 499 431 509 Q468 578 497.5 646 Q527 714 550 785 Q555 799 566.5 807.5 Q578 816 593 816 Q612 816 625 803 Q638 790 638 771 Q638 767 637.5 764 Q637 761 636 757 Q628 734 620.5 712 Q613 690 604 668 L788 668 Q807 668 821 654 Q835 640 835 621 L835 125 Q835 75 822 31 Q809 -13 782.5 -45.5 Q756 -78 716.5 -96.5 Q677 -115 625 -115 Q606 -115 593 -102 Q580 -89 580 -70 Q580 -51 593 -38 Q606 -25 625 -25 Q691 -25 718 12.5 Q745 50 745 125 L745 578 L566 578 Q553 549 539.5 521.5 Q526 494 511 467 ZM232 333 Q251 333 264 320 Q277 307 277 288 Q277 269 264 256 Q251 243 232 243 L157 243 L157 37 Q157 13 167 3.5 Q177 -6 206 -8 Q222 -10 234 -10 Q246 -10 262 -8 Q291 -6 301 3.5 Q311 13 311 37 L311 568 L157 568 L157 333 L232 333 ZM695 211 Q698 203 698 195 Q698 176 685 163 Q672 150 653 150 Q639 150 627.5 158 Q616 166 611 179 Q591 230 568 274.5 Q545 319 517 364 Q510 374 510 388 Q510 407 523 420 Q536 433 555 433 Q580 433 593 412 Q622 364 648 315 Q674 266 695 211 Z" /><glyph glyph-name="CID4626" unicode="&#x822a;" d="M121 -101 Q110 -117 89 -119 Q72 -120 59 -108 Q46 -96 45 -78 Q44 -70 46.5 -64 Q49 -58 53 -52 Q66 -34 75 -10.5 Q84 13 89.5 47 Q95 81 97.5 127.5 Q100 174 100 237 L100 297 L83 297 Q66 297 53 309.5 Q40 322 40 339 Q40 357 52.5 369 Q65 381 82 381 L100 381 L100 657 Q100 672 109 684 Q123 701 144 701 L193 701 Q193 701 194 702 L229 791 Q235 808 250.5 814.5 Q266 821 282 814 Q298 808 305 792.5 Q312 777 305 761 L282 701 L346 701 Q351 701 359 699 Q373 696 383 684.5 Q393 673 393 657 L393 15 Q393 -12 383 -35.5 Q373 -59 356 -76.5 Q339 -94 316 -104.5 Q293 -115 266 -115 Q249 -115 236.5 -103 Q224 -91 224 -73 Q224 -55 236.5 -43 Q249 -31 266 -31 Q289 -31 298.5 -19.5 Q308 -8 308 15 L308 297 L185 297 L185 237 Q185 169 181.5 117 Q178 65 170.5 24.5 Q163 -16 150.5 -46.5 Q138 -77 121 -101 ZM727 524 Q748 524 760 507 Q771 496 771 479 L771 46 Q771 14 773 2 Q775 -10 784 -11 Q786 -12 791 -12 Q796 -12 799 -11 Q807 -10 809 2 Q811 14 811 46 L811 70 Q811 88 821.5 100.5 Q832 113 849 113 Q867 113 879.5 100.5 Q892 88 892 70 L892 46 Q892 25 890.5 2.5 Q889 -20 882 -39.5 Q875 -59 860 -73.5 Q845 -88 818 -95 Q807 -97 790 -97 Q773 -97 763 -95 Q735 -88 719.5 -73.5 Q704 -59 696.5 -40.5 Q689 -22 687 0.5 Q685 23 685 46 L685 441 L567 441 Q568 369 565 297 Q562 225 552 158.5 Q542 92 523 31.5 Q504 -29 472 -79 Q460 -97 440 -99 Q422 -101 406 -90.5 Q390 -80 388 -62 Q386 -48 393 -35 Q424 16 442.5 73 Q461 130 470 194.5 Q479 259 480.5 331 Q482 403 481 483 Q481 498 490.5 508.5 Q500 519 514 522 Q522 524 526 524 L727 524 ZM818 696 Q836 696 848.5 683.5 Q861 671 861 653 Q861 635 848.5 622.5 Q836 610 818 610 L452 610 Q435 610 422 622.5 Q409 635 409 653 Q409 671 422 683.5 Q435 696 452 696 L588 696 L574 739 Q569 752 572 764 Q577 781 590 790 Q603 799 620 794 Q641 789 648 769 L675 696 L818 696 ZM185 381 L308 381 L308 617 L185 617 L185 381 ZM298 118 Q303 103 295.5 90.5 Q288 78 273 73 Q259 69 245 76.5 Q231 84 227 99 L202 203 Q197 217 204.5 230 Q212 243 227 247 Q241 252 255 244.5 Q269 237 273 222 L298 118 ZM294 464 Q299 450 291 437 Q283 424 269 420 Q255 415 242 423 Q229 431 225 445 L202 527 Q197 542 204.5 554.5 Q212 567 227 572 Q241 576 254 568.5 Q267 561 271 546 L294 464 Z" /><glyph glyph-name="CID4654" unicode="&#x8272;" d="M269 795 Q274 806 285 812.5 Q296 819 309 819 Q328 819 341 806 Q354 793 354 774 Q354 765 349 753 L345 745 L638 745 Q656 745 669.5 738 Q683 731 691 720 Q699 709 700 695 Q701 681 695 666 Q663 592 611 523 L757 523 Q776 523 790 509 Q804 495 804 476 L804 328 Q804 296 793 268.5 Q782 241 762 221 Q742 201 714.5 190 Q687 179 655 179 L231 179 L231 51 Q231 19 244.5 5.5 Q258 -8 290 -8 L707 -8 Q739 -8 752.5 5.5 Q766 19 766 51 L766 95 Q766 114 779 127 Q792 140 811 140 Q830 140 843 127 Q856 114 856 95 L856 51 Q856 19 845 -8.5 Q834 -36 814 -56 Q794 -76 766.5 -87 Q739 -98 707 -98 L290 -98 Q258 -98 230.5 -87 Q203 -76 183 -56 Q163 -36 152 -8.5 Q141 19 141 51 L141 458 L117 433 Q104 420 85 420 Q66 420 53 433 Q40 446 40 465 Q40 484 53 497 Q83 527 113.5 562.5 Q144 598 171.5 637 Q199 676 224 716 Q249 756 269 795 ZM496 524 Q553 588 589 655 L292 655 Q270 620 246.5 587.5 Q223 555 197 523 L495 523 L496 524 ZM231 269 L442 269 L442 433 L231 433 L231 269 ZM655 269 Q687 269 700.5 282.5 Q714 296 714 328 L714 433 L532 433 L532 269 L655 269 Z" /><glyph glyph-name="CID5290" unicode="&#x8ba1;" d="M825 498 Q844 498 857 484.5 Q870 471 870 452 Q870 433 857 420.5 Q844 408 825 408 L631 408 L631 -75 Q631 -94 618 -107 Q605 -120 586 -120 Q567 -120 553.5 -107 Q540 -94 540 -75 L540 408 L346 408 Q327 408 314 421 Q301 434 301 453 Q301 472 314 485 Q327 498 346 498 L540 498 L540 771 Q540 790 553.5 803 Q567 816 586 816 Q605 816 618 803 Q631 790 631 771 L631 498 L825 498 ZM235 -71 Q227 -79 216 -80 Q197 -84 182 -73 Q167 -62 163 -44 Q161 -32 164 -24 L164 428 L101 428 Q82 428 69 441 Q56 454 56 473 Q56 492 69 505 Q82 518 101 518 L208 518 Q235 518 247 495 Q254 485 254 471 L254 47 L316 86 Q326 93 336 94 Q355 98 370 87.5 Q385 77 388 58 Q390 45 385.5 33.5 Q381 22 372 14 L235 -71 ZM277 647 Q283 638 283 625 Q283 606 270 593 Q257 580 238 580 Q212 580 199 603 L119 742 Q113 751 113 764 Q113 783 126 796 Q139 809 158 809 Q184 809 197 786 L277 647 Z" /><glyph glyph-name="CID5316" unicode="&#x8bbe;" d="M348 -97 Q340 -99 335 -99 Q316 -100 302.5 -87.5 Q289 -75 288 -56 Q287 -41 295.5 -29 Q304 -17 318 -12 Q362 3 405 24.5 Q448 46 489 73 Q454 102 425.5 134.5 Q397 167 376 202 Q370 212 370 225 Q370 244 383 257 Q396 270 415 270 Q427 270 437.5 264 Q448 258 454 248 Q473 216 500.5 186 Q528 156 562 129 Q604 166 635 208 Q666 250 681 295 L384 295 Q365 295 352 308 Q339 321 339 340 Q339 359 352 372 Q365 385 384 385 L737 385 Q757 385 770 370 L774 366 Q774 365 776 363 Q784 348 783 334 Q775 262 735 197 Q695 132 636 77 Q686 46 738 22 Q790 -2 839 -16 Q853 -20 862 -32 Q871 -44 871 -59 Q871 -78 858 -91 Q845 -104 826 -104 Q821 -104 813 -102 Q754 -85 689.5 -54.5 Q625 -24 564 17 Q513 -21 457.5 -49.5 Q402 -78 348 -97 ZM822 515 Q841 515 854 502 Q867 489 867 470 Q867 451 854 438 Q841 425 822 425 L756 425 Q724 425 703.5 432 Q683 439 671 454.5 Q659 470 654 494 Q649 518 649 552 L649 690 L479 690 Q476 625 465.5 581 Q455 537 439.5 507 Q424 477 405 457.5 Q386 438 365 422 Q354 413 338 413 Q319 413 306 426 Q293 439 293 458 Q293 481 311 494 Q330 508 344.5 524 Q359 540 369 565.5 Q379 591 384.5 631.5 Q390 672 390 736 Q390 755 403 768 Q416 781 435 781 Q437 781 439.5 780.5 Q442 780 444 780 L693 780 Q713 780 725 766 Q739 754 739 734 L739 554 Q739 526 743 520.5 Q747 515 760 515 L822 515 ZM204 -30 Q194 -35 183 -35 Q162 -35 149 -19 Q135 -7 135 14 L135 444 L85 444 Q66 444 53 457 Q40 470 40 489 Q40 508 53 521 Q66 534 85 534 L179 534 Q193 534 204 526.5 Q215 519 220 508 Q225 496 225 487 L225 100 L260 129 Q264 132 268.5 134.5 Q273 137 279 139 Q297 143 312 134 Q327 125 332 106 Q335 94 331 82 Q327 70 318 62 L204 -30 ZM239 647 Q246 637 244 625 Q243 606 230 593.5 Q217 581 198 582 Q185 582 175 588.5 Q165 595 160 606 L91 738 Q84 748 86 760 Q87 779 100 791.5 Q113 804 132 803 Q145 803 155 796.5 Q165 790 170 779 L239 647 Z" /><glyph glyph-name="CID5850" unicode="&#x90fd;" d="M444 350 Q457 350 467 343.5 Q477 337 482 326 L484 322 Q488 315 488 305 L488 52 Q488 -10 452.5 -45.5 Q417 -81 354 -81 L265 -81 Q202 -81 166.5 -45.5 Q131 -10 131 52 L131 208 L101 181 Q96 175 85 171 Q68 164 51 171.5 Q34 179 27 197 Q22 209 25 222 Q28 235 38 244 Q69 272 95 296 Q121 320 143 341 Q165 362 184.5 381 Q204 400 221 418 L87 418 Q68 418 55 431 Q42 444 42 463 Q42 482 55 495 Q68 508 87 508 L209 508 L209 633 L136 633 Q117 633 104 646 Q91 659 91 678 Q91 697 104 710 Q117 723 136 723 L209 723 L209 770 Q209 790 222 803 Q235 816 254 816 Q273 816 286 803 Q299 790 299 770 L299 723 L361 723 Q380 723 393 710 Q406 697 406 678 Q406 659 393 646 Q380 633 361 633 L299 633 L299 508 Q329 547 362 596 Q395 645 440 715 Q452 732 471 736 Q490 739 505 728.5 Q520 718 524 700 Q527 682 518 668 Q486 618 459.5 579 Q433 540 410 508 L497 508 Q516 508 529 495 Q542 482 542 463 Q542 444 529 431 Q516 418 497 418 L342 418 Q312 383 280 350 L444 350 ZM706 50 Q687 50 674 63 Q661 76 661 95 Q661 114 674 127 Q687 140 706 140 Q736 140 744.5 167 Q753 194 748 230 Q743 268 729 311.5 Q715 355 692 412 Q687 422 687 435 Q687 440 691 450 Q691 453 692 455 L745 680 L647 680 L647 -66 Q647 -85 634.5 -98 Q622 -111 603 -111 Q584 -111 572 -98 Q560 -85 560 -66 L560 722 Q560 733 564 741 Q569 754 580 762 Q591 770 606 770 L800 770 Q819 770 832 757 Q845 744 845 725 Q845 720 843 714 L843 712 L778 440 Q803 387 815.5 339.5 Q828 292 836 244 Q845 199 838.5 163 Q832 127 814 102 Q796 77 768 63.5 Q740 50 706 50 ZM354 5 Q385 5 393.5 13.5 Q402 22 402 52 L402 98 L217 98 L217 52 Q217 22 225.5 13.5 Q234 5 265 5 L354 5 ZM217 184 L402 184 L402 264 L217 264 L217 184 Z" /></font>
</defs>
</svg>
